<svg xmlns="http://www.w3.org/2000/svg" xmlns:xlink="http://www.w3.org/1999/xlink" width="161.586" height="48.615" viewBox="0 0 161.586 48.615">
  <defs>
    <clipPath id="clip-path">
      <rect width="161.586" height="48.615" fill="none"/>
    </clipPath>
  </defs>
  <g id="FACEBOOK" clip-path="url(#clip-path)">
    <g id="Rectangle_1479" data-name="Rectangle 1479" fill="none" stroke="rgba(204,204,204,0.27)" stroke-width="2">
      <rect width="161.586" height="48.615" rx="5" stroke="none"/>
      <rect x="1" y="1" width="159.586" height="46.615" rx="4" fill="none"/>
    </g>
    <g id="facebook-2" data-name="facebook" transform="translate(48.714 18.283)">
      <path id="Path_177" data-name="Path 177" d="M909.778-5538.52c.649-1.037,1.311-2.067,1.941-3.116a.782.782,0,0,1,.8-.464c.673.038,1.35.012,2.151.012a22.126,22.126,0,0,1-1.7,2.651,1.9,1.9,0,0,0,.026,2.806,30.29,30.29,0,0,1,1.752,2.692c-.888,0-1.651-.009-2.414,0-.314,0-.39-.231-.517-.43a33.068,33.068,0,0,0-2.208-3.17c0,1-.018,1.992.008,2.986.012.45-.089.623-.593.625-1.936.006-1.936.026-1.936-1.88,0-3.236.011-6.475-.012-9.711,0-.488.117-.694.62-.694a7.939,7.939,0,0,0,1.369-.119c.484-.085.557.117.553.544-.019,2.174-.009,4.349-.009,6.523v.709Z" transform="translate(-849.447 5546.42)" fill="#6587f9"/>
      <path id="Path_178" data-name="Path 178" d="M511.6-5537.437c0-.822-.021-1.644.008-2.465.016-.44-.123-.627-.573-.572-.214.025-.436-.014-.651.008-.344.035-.5-.092-.449-.444a2.118,2.118,0,0,0,0-.29c0-1.249,0-1.266,1.224-1.315.354-.014.472-.124.443-.463-.021-.24,0-.483,0-.725.015-2.164.916-3.089,3.07-3.151,1.461-.041,1.718.26,1.514,1.718-.036.257-.132.331-.361.313a1.2,1.2,0,0,0-.145,0c-1.468.053-1.914.647-1.562,2.058.045.182.122.241.286.239.1,0,.193,0,.29,0,1.495.025,1.485.024,1.317,1.525-.041.373-.141.535-.562.543-1.328.02-1.327.04-1.327,1.375,0,1.377-.016,2.756.009,4.132.008.429-.091.58-.554.588-1.976.032-1.976.049-1.976-1.914C511.6-5536.664,511.6-5537.05,511.6-5537.437Z" transform="translate(-509.927 5546.858)" fill="#6587f9"/>
      <path id="Path_179" data-name="Path 179" d="M619.414-5518.107c.313.019.629.015.937.063,1.534.24,1.539.274,1.081,1.748-.125.4-.245.546-.677.352a3.035,3.035,0,0,0-.986-.2,1.7,1.7,0,0,0-2.016,1.657c-.011.1-.028.191-.034.288-.14,2.24.905,3.088,3.069,2.441.423-.126.522-.035.645.345.467,1.444.391,1.569-1.142,1.759a7.574,7.574,0,0,1-1.947-.026,3.372,3.372,0,0,1-3.039-3.012,8.355,8.355,0,0,1-.1-1.225C615.22-5516.7,616.634-5518.091,619.414-5518.107Z" transform="translate(-599.923 5522.279)" fill="#6587f9"/>
      <path id="Path_180" data-name="Path 180" d="M730.289-5539.666a3.069,3.069,0,0,0-3.17-2.349,2.892,2.892,0,0,0-2.253,1.118v-3.542c0-1.77,0-1.73-1.742-1.58-.659.056-.752.309-.748.889.026,3.337.013,6.674.013,10.012,0,1.405,0,1.389,1.387,1.413.606.011,1.2.09.991-.89a3.233,3.233,0,0,0,5.63-1.7A7.488,7.488,0,0,0,730.289-5539.666Zm-2.429,3.184a1.455,1.455,0,0,1-1.571,1,1.445,1.445,0,0,1-1.35-1.281,6.264,6.264,0,0,1-.01-1.94,1.423,1.423,0,0,1,1.437-1.339,1.426,1.426,0,0,1,1.558,1.2,8.928,8.928,0,0,1,.106,1.146A4.157,4.157,0,0,1,727.86-5536.481Z" transform="translate(-691.546 5546.195)" fill="#6587f9"/>
      <path id="Path_181" data-name="Path 181" d="M561.619-5516.576c0-1.375,0-1.345-1.394-1.388-.69-.023-1.211,0-1.007.975a2.94,2.94,0,0,0-3.268-.989,2.964,2.964,0,0,0-2.208,2.429,7.534,7.534,0,0,0-.049,3.164,3.085,3.085,0,0,0,3.315,2.785,2.906,2.906,0,0,0,2.278-1.192c-.341,1.085.288,1.023.9.993a4.07,4.07,0,0,1,.724,0c.549.074.738-.1.726-.694C561.595-5512.52,561.619-5514.548,561.619-5516.576Zm-2.592,3.938a1.392,1.392,0,0,1-1.38,1.068,1.366,1.366,0,0,1-1.448-1.063,5.114,5.114,0,0,1-.062-2.228,1.385,1.385,0,0,1,1.5-1.271,1.419,1.419,0,0,1,1.454,1.332,6.091,6.091,0,0,1,.008.94A3.473,3.473,0,0,1,559.027-5512.638Z" transform="translate(-547.218 5522.285)" fill="#6587f9"/>
      <path id="Path_182" data-name="Path 182" d="M850.046-5518.186c-2.351-.435-4.389.7-4.847,2.713a6.429,6.429,0,0,0-.014,2.878,3.37,3.37,0,0,0,2.142,2.547c3.147,1.233,5.849-.591,5.848-3.945C853.175-5516.429,852.154-5517.8,850.046-5518.186Zm.524,5.416a1.444,1.444,0,0,1-1.529,1.061,1.411,1.411,0,0,1-1.4-1.22,6.011,6.011,0,0,1-.028-1.939,1.426,1.426,0,0,1,1.452-1.4,1.454,1.454,0,0,1,1.583,1.354,5.311,5.311,0,0,1,.043.776A4.492,4.492,0,0,1,850.57-5512.77Z" transform="translate(-796.4 5522.425)" fill="#6587f9"/>
      <path id="Path_183" data-name="Path 183" d="M791.805-5515.893a3.377,3.377,0,0,0-1.969-2.359c-3.147-1.363-6,.486-6,3.884,0,2.634,1.269,4.088,3.709,4.258,2.465.17,4.082-1.069,4.385-3.407A6.1,6.1,0,0,0,791.805-5515.893Zm-2.456,2.739a1.377,1.377,0,0,1-1.366,1.08,1.427,1.427,0,0,1-1.508-.988,3.529,3.529,0,0,1-.146-1.355,3.2,3.2,0,0,1,.138-1.211,1.4,1.4,0,0,1,1.489-1.006,1.368,1.368,0,0,1,1.386,1.052A4.507,4.507,0,0,1,789.349-5513.154Z" transform="translate(-744.086 5522.789)" fill="#6587f9"/>
      <path id="Path_184" data-name="Path 184" d="M665.565-5513.113c.7.029,1.4.009,2.1.008h.726c2.1,0,2.1,0,1.825-2.139a3.02,3.02,0,0,0-2.053-2.731,4.965,4.965,0,0,0-3.48.1,2.978,2.978,0,0,0-1.887,2.147,7.563,7.563,0,0,0-.015,3.448,3,3,0,0,0,2.235,2.336,7.556,7.556,0,0,0,3.729.059c1.443-.3,1.432-.3,1.013-1.7-.1-.329-.2-.416-.55-.291a6.385,6.385,0,0,1-2.569.341,1.428,1.428,0,0,1-1.467-1.06C665.076-5512.964,665.136-5513.13,665.565-5513.113Zm-.288-2.562a1.545,1.545,0,0,1,2.386-.432,1.24,1.24,0,0,1,.348,1.2c-.132.4-.586.108-.89.172a2.924,2.924,0,0,1-.578.008h-.652C665.047-5514.727,664.941-5514.889,665.276-5515.675Z" transform="translate(-640.439 5522.396)" fill="#6587f9"/>
    </g>
  </g>
</svg>
