<svg xmlns="http://www.w3.org/2000/svg" xmlns:xlink="http://www.w3.org/1999/xlink" width="161.586" height="48.615" viewBox="0 0 161.586 48.615">
  <defs>
    <clipPath id="clip-path">
      <rect width="161.586" height="48.615" fill="none"/>
    </clipPath>
  </defs>
  <g id="GOOGLE" clip-path="url(#clip-path)">
    <g id="Rectangle_132" data-name="Rectangle 132" fill="none" stroke="rgba(204,204,204,0.27)" stroke-width="2">
      <rect width="161.586" height="48.615" rx="5" stroke="none"/>
      <rect x="1" y="1" width="159.586" height="46.615" rx="4" fill="none"/>
    </g>
    <g id="google-2" data-name="google" transform="translate(55 16)">
      <path id="Path_167" data-name="Path 167" d="M532.384-5773.3c-1.35,0-2.652-.016-3.954.009-.411.008-.524-.116-.522-.523,0-1.334-.012-1.334,1.347-1.334q2.365,0,4.731,0c.26,0,.486-.029.506.365a6.5,6.5,0,0,1-4.875,6.92,6.613,6.613,0,0,1-8.164-5.2,6.928,6.928,0,0,1,2.875-7.045,6.99,6.99,0,0,1,7.408.055c.317.207.446.379.155.716s-.439.818-.778,1c-.379.2-.709-.306-1.084-.458-3.043-1.241-5.956.169-6.566,3.282a4.713,4.713,0,0,0,1.78,5.043,4.528,4.528,0,0,0,4.859.417A4.156,4.156,0,0,0,532.384-5773.3Z" transform="translate(-521.323 5781.141)" fill="#4c8ff5"/>
      <path id="Path_168" data-name="Path 168" d="M795.075-5728.459c-2.581,1.357-4.462.341-5.379-.877a4.459,4.459,0,0,1,.194-5.363,3.946,3.946,0,0,1,5.146-.622c.051-.663.538-.467.921-.469,1.013-.008,1.013,0,1.013,1.006q0,3.324,0,6.651a3.375,3.375,0,0,1-3.174,3.762,6,6,0,0,1-3.886-.7c-.339-.185-.507-.379-.19-.752.25-.294.37-.764.672-.929.332-.181.654.277,1.017.382a5.151,5.151,0,0,0,1.474.308C794.264-5726.075,795.316-5726.7,795.075-5728.459Z" transform="translate(-757.637 5741.264)" fill="#4c8ff5"/>
      <path id="Path_169" data-name="Path 169" d="M899.99-5735.022a3.945,3.945,0,0,1,4.007,3.5c.044.369-.061.465-.4.526-1.74.316-3.474.667-5.214.979-.374.067-.359.168-.168.427a2.308,2.308,0,0,0,3.449.2c.279-.313.475-.313.768-.114a2.012,2.012,0,0,0,.207.108c1.093.554,1.095.569.164,1.425a4.432,4.432,0,0,1-5.067.418,4.084,4.084,0,0,1-1.7-4.593A4.024,4.024,0,0,1,899.99-5735.022Z" transform="translate(-852.124 5740.409)" fill="#ec4d3c"/>
      <path id="Path_170" data-name="Path 170" d="M643.067-5726.961a3.974,3.974,0,0,1-4.088-4.027,3.967,3.967,0,0,1,4.019-4.034,4.005,4.005,0,0,1,4.13,3.994A4.014,4.014,0,0,1,643.067-5726.961Z" transform="translate(-625.235 5740.41)" fill="#ec4d3c"/>
      <path id="Path_171" data-name="Path 171" d="M718.09-5735.022a4.006,4.006,0,0,1,4.042,4.025,4.016,4.016,0,0,1-4.093,4.036,3.975,3.975,0,0,1-4.057-4.058A3.971,3.971,0,0,1,718.09-5735.022Z" transform="translate(-691.477 5740.41)" fill="#fac303"/>
      <path id="Path_172" data-name="Path 172" d="M870.8-5771.688c0-1.962.012-3.925-.01-5.888,0-.41.108-.52.517-.516,1.352.013,1.352,0,1.352,1.368,0,3.654-.008,7.307.01,10.96,0,.458-.121.595-.584.587-1.285-.02-1.285,0-1.285-1.265Z" transform="translate(-829.97 5778.448)" fill="#3bb05d"/>
      <path id="Path_173" data-name="Path 173" d="M804.927-5718.609a2.149,2.149,0,0,1,2.2-2.34,2.2,2.2,0,0,1,2.236,2.323,2.2,2.2,0,0,1-2.218,2.337A2.145,2.145,0,0,1,804.927-5718.609Z" transform="translate(-771.798 5727.98)" fill="#fefefe"/>
      <path id="Path_174" data-name="Path 174" d="M914.668-5719.986a1.968,1.968,0,0,1,1.5.8c.2.252.194.393-.155.456-1.145.205-2.29.41-3.432.633-.334.065-.351-.035-.275-.323A2.216,2.216,0,0,1,914.668-5719.986Z" transform="translate(-866.604 5727.13)" fill="#fefdfd"/>
      <path id="Path_175" data-name="Path 175" d="M654.918-5717.693a2.147,2.147,0,0,1,2.178-2.3,2.183,2.183,0,0,1,2.252,2.246,2.19,2.19,0,0,1-2.2,2.3A2.148,2.148,0,0,1,654.918-5717.693Z" transform="translate(-639.312 5727.136)" fill="#fefefe"/>
      <path id="Path_176" data-name="Path 176" d="M732.148-5719.987a2.187,2.187,0,0,1,2.2,2.3,2.189,2.189,0,0,1-2.25,2.25,2.151,2.151,0,0,1-2.181-2.3A2.14,2.14,0,0,1,732.148-5719.987Z" transform="translate(-705.551 5727.131)" fill="#fefefe"/>
    </g>
  </g>
</svg>
